/* XPM */
static char *_27948e7be8f4cbbb53b519e63eb66f8Xbslj6JKUmk1x6Wy[] = {
/* columns rows colors chars-per-pixel */
"64 64 234 2 ",
"   c None",
".  c #010101",
"X  c #0C0502",
"o  c #040906",
"O  c #0A0A06",
"+  c #05060A",
"@  c #09060A",
"#  c #04090A",
"$  c #0A0B0C",
"%  c #140A03",
"&  c #1B1403",
"*  c #13130C",
"=  c #19180B",
"-  c #191309",
";  c #030712",
":  c #030A13",
">  c #0B0C12",
",  c #010E1B",
"<  c #000719",
"1  c #110E11",
"2  c #051315",
"3  c #0D151B",
"4  c #0B1519",
"5  c #131312",
"6  c #1C1512",
"7  c #1C1B14",
"8  c #17191A",
"9  c #0F100E",
"0  c #241C14",
"q  c #211E1D",
"w  c #2E1C10",
"e  c #1C201F",
"r  c #332405",
"t  c #2A2914",
"y  c #24221D",
"u  c #2B251B",
"i  c #292619",
"p  c #342C1B",
"a  c #392C1C",
"s  c #382A16",
"d  c #36311E",
"f  c #3E351D",
"g  c #2E2D12",
"h  c #091C2A",
"j  c #091B22",
"k  c #1E2122",
"l  c #1E262C",
"z  c #2B2B26",
"x  c #242A27",
"c  c #362E24",
"v  c #322A28",
"b  c #2D3329",
"n  c #323326",
"m  c #3B3324",
"M  c #3C3926",
"N  c #34342C",
"B  c #3B332C",
"V  c #3E392D",
"C  c #3C3432",
"Z  c #3C3C32",
"A  c #3E3D3A",
"S  c #333533",
"D  c #43361F",
"F  c #433624",
"G  c #433A27",
"H  c #41362D",
"J  c #443B2C",
"K  c #4B3D2B",
"L  c #443D33",
"P  c #493E33",
"I  c #463D37",
"U  c #3F4236",
"Y  c #4B4134",
"T  c #4B433B",
"R  c #444139",
"E  c #52453B",
"W  c #54493B",
"Q  c #5B4B3D",
"!  c #554733",
"~  c #4E422E",
"^  c #63523A",
"/  c #604E3B",
"(  c #4E4B43",
")  c #464442",
"_  c #534C43",
"`  c #5A4D43",
"'  c #5A4E49",
"]  c #544641",
"[  c #5C5145",
"{  c #5C534A",
"}  c #585649",
"|  c #5C5450",
" . c #614F42",
".. c #635444",
"X. c #63554C",
"o. c #65594C",
"O. c #6A5B4C",
"+. c #695745",
"@. c #715D4B",
"#. c #655B51",
"$. c #6A5D52",
"%. c #645A55",
"&. c #715F56",
"*. c #77664E",
"=. c #6D6254",
"-. c #6D665B",
";. c #666050",
":. c #746454",
">. c #796656",
",. c #766955",
"<. c #7B6955",
"1. c #746559",
"2. c #746A5C",
"3. c #7C6B5C",
"4. c #7E715E",
"5. c #6B604B",
"6. c #7C6D61",
"7. c #7D7366",
"8. c #826D5B",
"9. c #816A54",
"0. c #85725C",
"q. c #8B755D",
"w. c #897458",
"e. c #937C5E",
"r. c #816F62",
"t. c #847463",
"y. c #8A7664",
"u. c #8C7B64",
"i. c #827669",
"p. c #8E776A",
"a. c #86796B",
"s. c #8B7B6A",
"d. c #817A64",
"f. c #927C64",
"g. c #917D6A",
"h. c #917761",
"j. c #8D7D71",
"k. c #95815F",
"l. c #8B816A",
"z. c #998367",
"x. c #95826B",
"c. c #9C846C",
"v. c #9C8B6E",
"b. c #938364",
"n. c #8C8174",
"m. c #938372",
"M. c #9E8B73",
"N. c #9C8F7B",
"B. c #968975",
"V. c #9D917A",
"C. c #A48B6E",
"Z. c #A78B6B",
"A. c #AC946D",
"S. c #A48E73",
"D. c #A38F7B",
"F. c #AC9475",
"G. c #A4937D",
"H. c #AB957B",
"J. c #AC9A7C",
"K. c #AA997A",
"L. c #B39B7C",
"P. c #B39978",
"I. c #B0906B",
"U. c #B7A17C",
"Y. c #BAA27C",
"T. c #BAA176",
"R. c #C2A57E",
"E. c #C4A97E",
"W. c #C8AA7E",
"Q. c #9B9B86",
"!. c #948F80",
"~. c #A59A83",
"^. c #AB9A85",
"/. c #B29D84",
"(. c #B3A184",
"). c #BCA382",
"_. c #B5A48C",
"`. c #BBA989",
"'. c #B7AB96",
"]. c #AFA992",
"[. c #B9B7A7",
"{. c #B2B3A9",
"}. c #C2A681",
"|. c #C5AB84",
" X c #C5AD8B",
".X c #C8AE8A",
"XX c #C9AC83",
"oX c #CBB28E",
"OX c #C3AE93",
"+X c #C8AE90",
"@X c #C4B194",
"#X c #CCB493",
"$X c #CCB69B",
"%X c #CDBA9A",
"&X c #C6B799",
"*X c #D3BA95",
"=X c #D4BC9B",
"-X c #D6BB99",
";X c #D2B98E",
":X c #CDBEA4",
">X c #C4BAA8",
",X c #D3BCA1",
"<X c #D2BEA9",
"1X c #BEC1AC",
"2X c #D9C19F",
"3X c #CAC3AD",
"4X c #D5C2A4",
"5X c #DAC5AB",
"6X c #D8C5A8",
"7X c #D8CCBA",
"8X c #D6CCB5",
"9X c #E7CEB9",
"0X c #E9D4BB",
"qX c #D3CFC1",
"wX c #ECDCC4",
"eX c #E6D8C4",
"rX c #F3DBC7",
"tX c #F4E1C9",
"yX c #F1E1C6",
"uX c #E9E4D6",
"iX c #F5E9D5",
"pX c #F9EBD4",
"aX c #F5EADA",
"sX c #F3E4D6",
"dX c #DDEAEA",
"fX c #CFE6EC",
"gX c #E2E8E7",
"hX c #FCF3E5",
"jX c #FBF3EA",
"kX c #FFFBEC",
"lX c #F9F5E8",
"zX c #FFFFFD",
"xX c #FFFFF6",
"cX c #EBEEEA",
/* pixels */
"                                                                                                                                ",
"                                                                                                                                ",
"                                                              dXgXdXdXdX                                                        ",
"                                                        3X3XhXzXzXzXzXzXxX7X>X                                                  ",
"                                                    Q._.hXkXhXjXjXhXhXjXjXkXkX8XN.                                              ",
"                                                    [.,XhXkXjXjXjXjXlXlXlXhXkX0X:X[.                                            ",
"                                                    >X4X0XeXaXkXjXjXjXlXhXeXeX5X4X[.                                            ",
"                                                    [.#X#X@XwXpXiXaXaXaXpX=X@X#X4X[.                                            ",
"                                                    Q.U.*X*X*X%X%X%X%X%X*X*X=X XH.                                              ",
"                                                    } *.).).#X=X-X*X*X*X*X}.`.v.!                                               ",
"                                                        n.q.U..X X|..X X.Xb.u.-.                                                ",
"                                                          X b.P.A.A.A.A.F.! .                                                   ",
"                                        ~.^.              r _.4X=X=X-X=X,X:.i           fXgXuXdX                                ",
"                                    ~./.U.C.B.          q & -.i.a.B.m.4.i.P .           7X0X9XwXqX                              ",
"                                  ~.).F.S.f.f.B.m.2.B C @ @ . . m $.` . . 2 . n.:X:XyXyX=XoX.X).,XkXgX                          ",
"                                  ^.v.w.q.H.L.F.P.S.y.6.. . _ o.8.S.x.+.#.8 . Q 0.w.A.Z.oX=XH.9.~.cXdX                          ",
"                                m.x.g.u.f.x.f.F.L.L.H.^././.L.L.L.U.U.L.L.L.J.(.).}.|. XS.v.f.8.                                ",
"                            ~.|.c.q.3...o.O.O.,.4.4.4.t.g.u.L.XXE.E.E.W.|.c.u.l.u.u.u.p.3.=.x./.                                ",
"                        , + V.L.z.h.@.. - t u . . . . . . . m.).Y.E.R.T.(.T . . . . . . ] E G.,X#X`.Q.                          ",
"                  ( . > > . S.L.c.t.y.p.7.y * n d X.j.p.p.s.s.q.Z.|.U.f.u.).+XG.a.7.m G F s @.y.e.L.Q.                          ",
"                ) S . $ . . a.c.g.g.3.E (       0 B W Y P I I v 8..XF.B J / ..Q E T 0 i u X O.g.z.(.^.                          ",
"            ( y . . $ $ 0 0 6.s.>.>.X.              * c P P W K 0..XJ.Y W ;.1.W .   y k l     :.8.s.b..X'.                      ",
"          S B 9 $ $ . 7 B F 4.p.Y .                   $.a.s.m.v.F.E.Y.v.v.@X5XG.(             . . . . '.3X                      ",
"          5 1 $ + @ + * t r G P u >                 4 y z u X.O.z.oX).@.$.] X {.lXuXG.~.            s.&X4X].!.                  ",
"        v X o + + $ . z =.O.f p 7 . :                       A V [ t.1.H A     {.uXwXyXrX<X>X      T o.G./.L.@X                  ",
"      ; . @ o # o 5 . P s.y.K m y . # # ,                     7 n R H 0 +         &XpXpXrXtX&Xs.i.& = $.@.F.@X                  ",
"      + $ + # # . y u Y y.0.F s 0 . # + ,                     ] G.5X'...            ].'.iXkX5XY.K. .X.u . u.#XM..               ",
"h > 8 + + + + 1 . [ 3.3.p.y.<.3.P . > ; ,               8 + ( X.X.5...M n               1X8X9XrX6Xk.x.a . :.S.w.p               ",
"h + . + + + # 5 . #.g.y.3.3.y.j.] . 1 ; ,           n m t & o.>.:.,.*.^ ..` ` ~ d           7XpX0X+XOXH . o.s.:.p               ",
"h + $ + + + + 5 . X.p.3.[ ..8.a.T . 9 $ 2       K G G F K D 0.f.F.oX).e.f.Q a m f m J U       qX7X0X9XP . O.g.1.s               ",
"h + @ # + + # $ . T $.o.o.o.o.$.C . O . . N = l.(.w.. w 3.9.F.).Y.|.E.Y.U.f.t...% K y.t.T         uXsXY . O.g.:.t               ",
"h + @ @ + @ @ > . T $.' B V Y T u . y ) R G r 0.v.M.J.K.F.F.)..XF.q.z.|.|.C.c.t.O.<.y.y.! z             $.t.f.0.X.              ",
"j + @ o # + @ $ . L { T . . y u = . k     M s >.8.F.-X;XE.|.L.J.y.s ..H.H.c.c.x.u.u.q.y.~ z               i.,.q.G.              ",
"  : + + # o + $ . y m u o $ O @ + >         u 2.y.Z.}.).Y.).*.` T X u ` Q 8.y.0.y.y.y.t.Y                   . <.4X[.            ",
"      ; @ # # # + * 6 5 + o o .                 ..q.H.M.<.,.t.j.{ . v a.s.1.O.t.M.g.O.                      '.#X4X:Xd.          ",
"      ; @ + o + # o . + @ O 7 y                 1.8.t.3.H B X.|       %.#.T C O.y.0.1.                      6XoX(._.OX'.        ",
"      : + ; # + + $ # $ $ o U Z                 n.t.Q W X o . .         . . . B Q ..s.                      >X_.3.g.=X>X        ",
"          , # # # . . . . 5 }                   a.>.p G m                   N M m ! s.                        :.+.^ @X,XN.      ",
"              : + y u L -.                    a.m.O.. y                       l $ B j.a.                        3X<XG.G.G.7.    ",
"                                            a.y.r.{ . 3                         . z 7.r.O.                        qXi.,.        ",
"                                            s.*.o.T .                           < 8 { { $.                                      ",
"                                            q.c.H.s.E                                 ] o.                                      ",
"                                          N.v.U.#XH.`                                 L ..o.                                    ",
"                                        u.L.F.|.=X^.E                               N m [ #.{ #.                                ",
"                                        g.F.F.I.F.u.L                               N m [ | 2.a.                                ",
"                                        y.H.F..X=XG.p                               N m G Z                                     ",
"                                      !.H.C.C.L.`.D.X.                              x t Y I                                     ",
"                                        ~.t.t.0.3.y.j.                              2 % {                                       ",
"                                             .+.X.4.B.                              3 6 '                                       ",
"                                          '.(.g.1.                                  3 - {                                       ",
"                                      Q.`.2X4XJ.s.                                  j * o.6.                                    ",
"                                      G.P.#X-XL.m.                                  3 * 3.m.` .                                 ",
"                                      ~.U.=X5XG.7.                                z _ Q ..$.H . $ 8                             ",
"                                        x.D.'.                                  # B 3.3.>.2.{ L C 5 j                           ",
"                                        ] X.                                    . V p.y.y.s.,.o.' O 3                           ",
"                                      x c r.j.( #                               . V s.y.y.p.1.X._ O j                           ",
"                                    3 . c _.&Xt.A                               # c =.=.:.1.] N S                               ",
"                                  e B E ..%X6XJ.m.-.+ l                           z _ ` ` _ N .                                 ",
"                                  o E p.y.OX%X=X6XN.. x                               n d                                       ",
"                                  . T p.g.$X=X*X4XN.. x                                                                         ",
"                                  n T [ O.^./.F./.i.. k                                                                         ",
"                                      X w =.:.:.&.  ;                                                                           ",
"                                        B 6 5 5 2                                                                               ",
"                                                                                                                                "
};
