/* XPM */
static char *ce3573f92b6a4ac1dce1c50949d1c2a95WI2sWP99UgIgVwa[] = {
/* columns rows colors chars-per-pixel */
"64 64 173 2 ",
"   c None",
".  c #000000",
"X  c #0C0101",
"o  c #000A09",
"O  c #0C0C0C",
"+  c #130101",
"@  c #1C0101",
"#  c #100B0B",
"$  c #00100F",
"%  c #001210",
"&  c #141313",
"*  c #181212",
"=  c #1C1C1C",
"-  c #230101",
";  c #2B0101",
":  c #260608",
">  c #2B0608",
",  c #27090A",
"<  c #320102",
"1  c #3A0102",
"2  c #300608",
"3  c #301919",
"4  c #002323",
"5  c #002929",
"6  c #082929",
"7  c #172424",
"8  c #1B2626",
"9  c #013635",
"0  c #0E3434",
"q  c #003837",
"w  c #003939",
"e  c #0D3A3A",
"r  c #133434",
"t  c #1B3333",
"y  c #133C3B",
"u  c #1C3C3B",
"i  c #232323",
"p  c #2A2525",
"a  c #2D2D2D",
"s  c #372727",
"d  c #3E2222",
"f  c #3B2C2D",
"g  c #243434",
"h  c #2D3232",
"j  c #223B3B",
"k  c #2B3B3B",
"l  c #333232",
"z  c #3C3131",
"x  c #333B3B",
"c  c #3B3B3B",
"v  c #460204",
"b  c #4A0305",
"n  c #460509",
"m  c #4E0509",
"M  c #550306",
"N  c #5E0206",
"B  c #540509",
"V  c #5C0509",
"C  c #411B1C",
"Z  c #640207",
"A  c #6A0207",
"S  c #64050A",
"D  c #6C0409",
"F  c #720105",
"G  c #74040A",
"H  c #7B030A",
"J  c #7A0A0F",
"K  c #601C1D",
"L  c #701619",
"P  c #7E1519",
"I  c #7C1A1D",
"U  c #4D2324",
"Y  c #412F2F",
"T  c #4C2D2D",
"R  c #5D2324",
"E  c #552E2F",
"W  c #5C2D2D",
"Q  c #492F30",
"!  c #413030",
"~  c #443B3B",
"^  c #493B3B",
"/  c #563031",
"(  c #563B3C",
")  c #622D2E",
"_  c #7B2426",
"`  c #7D2729",
"'  c #7D2829",
"]  c #424343",
"[  c #4E4E4E",
"{  c #545454",
"}  c #5C5C5C",
"|  c gray39",
" . c #6C6C6C",
".. c #737373",
"X. c #83040B",
"o. c #8B030C",
"O. c #95040D",
"+. c #9B030D",
"@. c #A2030F",
"#. c #AB030E",
"$. c #B5010E",
"%. c #BC000E",
"&. c #A70410",
"*. c #AC0310",
"=. c #A30D15",
"-. c #B40310",
";. c #BC0311",
":. c #AC1219",
">. c #B4151D",
",. c #BD151D",
"<. c #AA1D22",
"1. c #8A2326",
"2. c #862628",
"3. c #892528",
"4. c #962326",
"5. c #A02024",
"6. c #CA000F",
"7. c #D4000E",
"8. c #DD000C",
"9. c #C40212",
"0. c #CC0213",
"q. c #CE0D19",
"w. c #D40214",
"e. c #DC0215",
"r. c #D80817",
"t. c #D10C19",
"y. c #D80A18",
"u. c #C3131C",
"i. c #CB111B",
"p. c #E30115",
"a. c #EB0116",
"s. c #F30116",
"d. c #FD0016",
"f. c #F60218",
"g. c #FE0018",
"h. c #FF0018",
"j. c #FF0118",
"k. c #FF0019",
"l. c #FF0119",
"z. c #FE0118",
"x. c #FF001A",
"c. c #FF001B",
"v. c #FD0018",
"b. c #FF0018",
"n. c #808080",
"m. c gray52",
"M. c gray54",
"N. c #8E8E8E",
"B. c #A5A5A5",
"V. c #AAABAB",
"C. c #AEAEAE",
"Z. c #B7B7B7",
"A. c #B1B1B1",
"S. c #B9B9B9",
"D. c gray76",
"F. c #C9C9C9",
"G. c #CDCDCD",
"H. c #CECECE",
"J. c gray83",
"K. c #D2D2D2",
"L. c #DBDBDB",
"P. c gray85",
"I. c #DBDCDC",
"U. c #DDDDDD",
"Y. c #E1E1E1",
"T. c #E2E2E2",
"R. c #ECECEC",
"E. c #F1F1F1",
"W. c #F3F3F3",
"Q. c gray96",
"!. c #FBFBFB",
"~. c white",
"^. c #FDFDFD",
/* pixels */
"                                                  +.-.0.w.e.e.e.e.e.e.e.w.9.#.                                                  ",
"                                          -.w.a.k.k.k.k.k.f.a.p.e.p.p.a.v.k.k.k.f.e.9.O.                                        ",
"                                    ;.e.k.k.k.k.a.9.+.A 1 . o $ % % $ o . 1 F +.9.a.k.k.s.0.O.                                  ",
"                                9.v.k.k.k.a.#.N . . . . 4 8 * . . . . + 7 4 o . . . N #.a.k.k.p.*.                              ",
"                            #.k.k.k.k.p.o.. . . . @ , f . . . . i p . . . . s 3 @ . . . . o.p.k.k.a.#.                          ",
"                          e.k.k.k.f.@.. . X - + X # & . ] V.H.L.U.L.I.K.Z. .. . = . + - + . . +.f.k.k.p.X.                      ",
"                      m s.k.v.k.a.N . + ; . . . O . . A.W.L.C.M.....m.B.H.W.H.& . & . . . ; + . M p.k.k.k.-.                    ",
"                      a.k.v.k.p.@ . < + . . . . = . D.!.n.. . . . . . . . { R.T.. . O . . . X < . . e.k.k.k.9.                  ",
"                    9.k.v.k.a.< . ; . . . . . = . | ~.M.. i = i i i i i i . l ~.B.. a . . . . . ; . X a.k.k.k.w.                ",
"                  H k.k.k.k.X.. < . . . . . . = .  .~.... ] i & . . O = c . . !.C.. a . . . . . . ; . H k.k.v.k.9.              ",
"                  0.k.v.k.e.. - . . . . . . . . = . J.W.[ . . . . . . . . . I.W.i . & . . . . . . . ; . w.k.k.k.k.@.            ",
"                X s.k.k.k.@.. ; . . . . . . . . & . . F.Q.F.N.} c c { n.S.R.T.[ . = . . . . . . . . - . O.k.k.k.k.k.B           ",
"                S k.k.k.k.D . @ . . . . . . . . . & . .  .D.U.T.T.T.T.T.H.M.. . = . . . . . . . . . + . Z k.k.k.k.k.;.          ",
"                G k.k.k.a.@ . . . . . . . . . . . . O i . . . a { } c . . . & & . . . . . . . . . . X . b f.k.k.k.k.v.2         ",
"                S k.k.k.p.. + . . . . . . . . . . . . . = a = . . . . & a i . . . . . . . . . . . . X . > a.k.k.k.k.k.o.        ",
"                o s.k.k.e.o + . . . . . . . . . . . . . . . . = i i = O . . . . . . . . . . . . . . X . M f.k.k.k.k.k.*.        ",
"                  0.k.k.p.o.1 . + . . . . . . . . . . . . . . . . . . . . . . . . . . . . . . . . . ; . O.k.k.k.k.k.k.-.        ",
"                  o.k.k.a.*.@.. < . . . . . . . . . . . . . . . . . . . . . . . . . . . . . . . . X + . w.k.k.k.k.k.k.-.        ",
"                    p.k.k.*.p.D . < . . . . . . . . . . . . . . . . . . . . . . . . . . . . . . @ . X o.k.k.k.k.k.k.k.@.        ",
"                    X.k.k.e.;.f.v . ; @ . . . . . . . . . . . . . . . . . . . . . . . . . . - @ . Z o.p.k.k.k.k.k.k.k.G         ",
"                      -.k.k.-.e.k.G . . ; @ . . . . . . . . . . . . . . . . . . . . . . @ < . . o.*.0.k.k.k.k.k.k.k.p.          ",
"                        e.k.k.*.p.k.;.+ . . ; - . . . . . . . . . . . . . . . . . . - ; . . 1 9.9.0.k.k.k.k.k.k.k.k.o.          ",
"                        @ a.k.k.;.0.k.f.#.< . . . @ - @ + + + X X X X + + + @ @ @ . . . < $.p.0.0.k.k.k.k.k.k.v.k.0.            ",
"                          B e.k.k.e.;.p.k.f.0.o.; . . . . . . . . . . . . . . . . < o.0.s.p.9.p.k.k.k.k.k.k.v.k.a.              ",
"                            S w.v.k.f.w.9.e.f.k.s.e.;.o.A v - + . . . - v Z o.$.w.a.f.p.0.w.v.k.k.k.k.k.k.k.k.a.2               ",
"                          -.f.p.;.e.k.k.k.p.w.0.e.p.s.k.k.s.s.@.9.a.p.a.s.k.f.p.p.e.w.e.f.k.k.k.k.k.k.k.k.k.0.                  ",
"                      o.p.k.k.k.v.w.9.p.k.k.k.k.s.a.p.k.k.k.k.*.f.k.k.k.k.k.k.s.s.a.k.k.k.k.k.k.k.k.k.k.s.9.D                   ",
"                    ;.k.k.k.k.k.k.k.f.w.9.p.k.k.k.p.p.a.a.f.a.@.f.v.s.s.a.p.e.e.w.w.s.k.k.k.k.k.k.k.f.0.;.s.k.*.                ",
"                S p.k.k.k.k.k.k.k.k.k.k.f.a.k.k.k.s.p.p.e.e.;.+.e.w.w.w.e.p.a.s.f.k.k.k.k.k.k.k.k.f.9.p.k.k.k.k.;.              ",
"              +.k.k.k.k.k.k.k.k.k.k.k.k.k.k.k.k.k.k.k.k.k.k.w.9.k.k.k.k.k.k.k.k.k.k.k.k.k.k.k.k.k.k.k.k.k.k.k.k.k.9.            ",
"            -.k.k.k.k.k.k.k.k.k.k.k.k.k.k.k.k.k.k.k.k.k.k.k.;.w.k.k.k.k.k.k.k.k.k.k.k.k.k.k.k.k.k.k.k.k.k.k.k.k.k.k.;.          ",
"          ;.k.k.k.k.k.k.f.e.k.k.k.k.k.k.k.k.k.k.k.k.k.k.k.k.*.p.k.k.k.k.k.k.k.k.k.k.k.k.k.k.k.k.k.e.f.k.k.k.k.k.k.k.k.#.        ",
"        9.k.k.k.k.k.k.k.-.w.k.k.k.k.k.k.k.k.k.k.k.k.k.k.k.k.#.s.k.k.k.k.k.k.k.k.k.k.k.v.f.s.k.k.k.w.-.k.k.k.k.k.k.k.k.k.X.      ",
"      ;.k.k.k.k.k.k.k.0.;.k.k.k.k.k.k.k.v.k.k.k.k.k.v.k.k.f.@.f.k.k.k.k.k.e.9.w.0.w.w.w.e.9.0.k.f.k.;.w.k.k.k.k.k.k.k.k.s.o     ",
"    @.k.k.k.k.k.k.k.a.@.k.k.k.k.k.k.v.k.v.k.k.k.k.k.v.v.k.s.#.k.k.k.k.k.k.-.w.k.k.k.k.k.k.p.#.k.k.k.k.@.s.k.k.k.k.k.k.k.k.-.    ",
"  S k.k.k.k.k.k.k.k.@.a.k.k.k.k.k.k.k.k.v.v.k.k.k.k.k.k.k.p.&.k.k.k.k.k.k.p.@.e.e.e.e.w.w.@.w.k.k.k.k.p.*.k.k.k.k.k.k.k.k.k.V   ",
"  0.k.k.k.k.k.k.k.9.0.k.f.k.k.k.k.k.k.k.k.k.k.k.k.k.k.k.k.p.-.k.k.k.k.k.k.a.*.f.s.a.s.f.k.e.-.k.k.k.k.k.-.e.k.k.k.k.k.k.k.k.-.  ",
"V k.k.k.k.k.k.k.f.@.k.k.k.k.k.k.k.k.k.v.k.k.k.k.k.k.k.v.k.p.;.k.k.k.k.k.k.f.@.s.k.k.k.f.a.-.p.k.k.k.k.k.s.@.k.k.k.k.k.k.k.k.a.  ",
"O.k.v.k.k.k.f.k.0.9.k.k.k.k.k.k.k.k.k.k.k.k.k.k.k.k.k.v.k.e.;.k.k.k.k.k.k.k.a.0.w.w.w.w.w.s.k.k.k.k.k.k.k.;.w.k.k.k.k.k.k.v.k.H ",
"O.k.k.k.k.k.k.k.*.p.k.k.k.k.k.k.k.k.k.k.k.k.k.k.k.k.k.v.k.p.;.k.k.k.k.k.k.k.k.k.f.v.v.k.k.k.k.k.k.k.k.f.k.a.*.k.k.k.k.k.v.v.k.O.",
"X H ;.p.s.f.k.k.#.v.k.k.z.k.k.k.k.k.k.v.v.v.k.k.k.k.k.k.k.p.-.k.k.k.k.k.k.k.k.k.k.k.k.k.k.f.k.k.z.k.k.k.v.v.#.p.k.k.k.k.k.k.k.@.",
"o . . . v A o.H J p.s.d.d.v.k.k.k.k.k.k.k.v.k.k.v.k.k.k.k.p.#.k.k.k.k.k.k.k.k.k.k.k.k.k.k.k.v.v.d.d.s.e.u.<.U =.k.k.k.f.s.p.0.D ",
"  - ; + . . . . 6 g W 2.<.u.e.a.s.d.d.v.k.k.k.k.k.k.k.k.k.f.*.k.k.k.k.k.k.k.v.v.v.k.k.v.s.p.t.,.5.' E r q w u C F H F A b . . o ",
"    . X - - < + 9 c k e w q 9 z ) ` 4.<.;.w.w.e.p.a.a.s.s.a.+.a.s.a.a.p.p.r.q.u.:.0.%.R / h 9 w w u x ~ ~ c y 5 . . . . . . - : ",
"      . . . . M _ r w y x ~ ~ ~ c k j 9 9.7.5 9 t h z ! Q T Y Q ! z l t 9 9 9 e 9 =.d.R j ^ c c k e w 9 g W 1.u.o.. < - - @ X   ",
"        o - . @.v.e.>.2.E 0 q w w w w U d.:.w ( ^ ~ ~ ~ ~ c ~ c ~ ~ ~ ~ ~ ~ c ~ w d d.-.9 w 9 ! ) 3.<.i.p.s.d.k.0.. - . . .     ",
"            . 9.k.k.v.d.s.e.i.<.4.' E K 8.L 9 9 9 q w w w w w j q 9 9 9 9 0 l T ) I 6.9.>.i.e.a.s.d.v.v.k.k.k.k.a.+ . @ .       ",
"              0.k.v.k.k.k.k.v.v.d.d.s.a.p.p.e.t.i.i.u.,.,.u.,.P u.i.t.y.e.p.a.s.d.v.f.k.v.v.v.k.k.k.z.k.k.k.k.k.k.G . ;         ",
"              9.k.k.k.k.k.k.k.k.k.k.k.k.k.k.k.v.v.v.v.v.v.v.v.$.a.v.v.v.k.k.k.k.k.k.k.k.k.k.k.k.k.k.k.v.v.k.k.k.k.#.            ",
"              9.k.k.k.k.k.k.k.k.k.k.k.k.k.k.k.k.k.k.k.f.k.k.k.e.&.k.k.k.k.k.k.k.v.v.k.k.k.k.k.k.k.k.k.k.v.v.k.k.k.0.            ",
"              ;.k.k.k.k.k.k.k.k.k.k.k.k.k.k.k.k.k.k.k.k.k.k.k.k.f.k.k.k.k.k.k.k.k.v.k.k.k.k.k.k.k.k.k.k.k.k.k.k.k.p.            ",
"              -.k.k.k.k.k.k.k.k.k.k.k.k.v.k.k.k.k.k.k.w.;.;.-.;.w.v.k.k.k.k.k.k.k.k.k.k.k.k.k.k.k.k.k.k.k.k.k.k.k.f.>           ",
"              @.k.k.k.k.k.k.k.k.k.k.k.v.v.k.k.k.k.f.o.              9.k.k.k.k.k.k.k.k.k.k.k.k.k.k.k.v.k.k.v.v.v.k.f.B           ",
"              o.k.k.k.k.k.k.k.k.k.k.k.v.v.v.k.k.k.p.                  9.k.k.k.k.k.k.k.k.k.k.k.k.k.v.v.k.k.k.k.k.k.k.V           ",
"              S k.k.k.v.k.k.k.k.k.k.k.v.k.k.k.k.k.k.H                 X.k.k.k.k.v.k.v.k.k.k.k.k.k.k.k.k.k.k.k.k.k.f.n           ",
"                a.k.v.k.k.k.k.k.k.k.k.k.k.k.k.k.k.k.O.                X.k.k.k.k.k.v.k.k.k.k.k.k.k.k.k.k.k.k.k.k.k.a.            ",
"                ;.k.k.k.k.k.k.k.k.k.k.k.k.k.k.k.k.k.#.                B k.k.k.k.k.k.k.k.k.k.k.k.k.k.k.k.k.k.k.k.k.9.            ",
"                H k.k.k.k.k.k.k.k.k.v.v.k.k.k.k.k.k.-.                  a.k.k.k.k.k.k.k.k.k.k.k.k.k.k.k.k.k.k.k.k.o.            ",
"                  e.k.k.k.k.k.k.k.k.v.k.k.k.k.k.k.k.-.                  0.k.f.k.k.k.k.k.k.k.k.k.k.k.k.v.k.k.v.k.e.              ",
"                  S k.k.k.k.k.k.k.k.k.k.k.k.k.k.k.k.-.                  o.k.k.k.k.k.k.k.k.k.k.k.k.k.v.v.k.k.k.v.V               ",
"                    +.k.k.k.k.k.k.k.k.k.k.k.k.f.k.k.X.                    -.k.k.k.k.k.v.v.k.k.v.k.k.k.k.k.k.9.                  ",
"                      O.f.k.k.k.k.v.k.k.k.v.k.k.k.#.                        X.0.f.k.k.k.k.k.k.k.k.k.k.a.9.                      ",
"                          -.e.k.k.k.k.k.k.k.k.s.+.                                *.9.w.e.e.e.e.w.;.                            ",
"                                -.0.w.w.w.0.*.                                                                                  "
};
