/* XPM */
static char *af65b28b91404edb9eb5093a58aaef5btjteD052huvo51Cs[] = {
/* columns rows colors chars-per-pixel */
"64 64 239 2 ",
"   c None",
".  c #010101",
"X  c #0B0402",
"o  c #0C0A04",
"O  c #02040B",
"+  c #05090B",
"@  c #0C0B0B",
"#  c #000900",
"$  c #130B05",
"%  c #120E0C",
"&  c #170504",
"*  c #15120C",
"=  c #19150C",
"-  c #020B13",
";  c #020816",
":  c #120F15",
">  c #0C151A",
",  c #091518",
"<  c #141412",
"1  c #1B1A16",
"2  c #141A1A",
"3  c #1B1C1C",
"4  c #181616",
"5  c #0B1C00",
"6  c #231C15",
"7  c #211E1B",
"8  c #261B15",
"9  c #21170F",
"0  c #1D221F",
"q  c #2A230D",
"w  c #34240E",
"e  c #23221B",
"r  c #2B231C",
"t  c #2B2312",
"y  c #342C1D",
"u  c #372A17",
"i  c #0E1B22",
"p  c #1B2324",
"a  c #2A2724",
"s  c #312C26",
"d  c #362C25",
"f  c #3B3324",
"g  c #35322D",
"h  c #3C342C",
"j  c #363628",
"k  c #3C3631",
"l  c #3C3735",
"z  c #2F2A32",
"x  c #45351C",
"c  c #433C2D",
"v  c #46392A",
"b  c #443C32",
"n  c #483D39",
"m  c #4E432F",
"M  c #52442E",
"N  c #4C4335",
"B  c #4C433B",
"V  c #4E493D",
"C  c #51453C",
"Z  c #554A3C",
"A  c #5A4C3F",
"S  c #584834",
"D  c #5A5036",
"F  c #61533F",
"G  c #4C4641",
"H  c #474542",
"J  c #544C42",
"K  c #5A4D44",
"L  c #544A46",
"P  c #5D5245",
"I  c #5D534B",
"U  c #565248",
"Y  c #5D5957",
"T  c #634E48",
"R  c #635446",
"E  c #62564B",
"W  c #63594D",
"Q  c #6A5A4C",
"!  c #675646",
"~  c #735E4D",
"^  c #645A52",
"/  c #6B5D53",
"(  c #665C58",
")  c #745E53",
"_  c #6E624B",
"`  c #6D6155",
"'  c #6C635A",
"]  c #656053",
"[  c #736454",
"{  c #756856",
"}  c #75645B",
"|  c #79675A",
" . c #746A5B",
".. c #7C6C5C",
"X. c #7A6856",
"o. c #7E705E",
"O. c #72624E",
"+. c #7E6E62",
"@. c #766C65",
"#. c #7D7163",
"$. c #79766D",
"%. c #747371",
"&. c #666764",
"*. c #816E5A",
"=. c #816B57",
"-. c #83725C",
";. c #8C7A5C",
":. c #927B5C",
">. c #847464",
",. c #8A7563",
"<. c #8C7A65",
"1. c #847469",
"2. c #867A6B",
"3. c #8C7B6B",
"4. c #887867",
"5. c #937C65",
"6. c #917D6D",
"7. c #997C6D",
"8. c #927E71",
"9. c #8E816B",
"0. c #948164",
"q. c #95836A",
"w. c #9A846A",
"e. c #96886D",
"r. c #9E8C6E",
"t. c #9E8465",
"y. c #938473",
"u. c #978973",
"i. c #9C8B72",
"p. c #9B8B7A",
"a. c #998575",
"s. c #8D907C",
"d. c #968A78",
"f. c #A38A6C",
"g. c #A28D73",
"h. c #A88E76",
"j. c #A49176",
"k. c #AA9375",
"l. c #A4937C",
"z. c #AB957B",
"x. c #AD9B7E",
"c. c #A79A79",
"v. c #B19B7A",
"b. c #B39A77",
"n. c #B0976E",
"m. c #B9A17C",
"M. c #988D83",
"N. c #AE9C83",
"B. c #A49A87",
"V. c #B59E83",
"C. c #AF9F94",
"Z. c #A7A28B",
"A. c #B5A185",
"S. c #B9A283",
"D. c #BDA68B",
"F. c #BDAB8C",
"G. c #B6A58B",
"H. c #AAA395",
"J. c #BCAA92",
"K. c #B9A998",
"L. c #BEB29D",
"P. c #BCAFA4",
"I. c #BEBBA6",
"U. c #BAB5AD",
"Y. c #BBB6A7",
"T. c #BABBB1",
"R. c #C4AB8C",
"E. c #CBB28E",
"W. c #C5AE94",
"Q. c #C5B294",
"!. c #CCB493",
"~. c #C4B39B",
"^. c #CBB49A",
"/. c #CCBB9C",
"(. c #CEBA96",
"). c #D3BC9B",
"_. c #D3B896",
"`. c #C6B4A4",
"'. c #C4BCA5",
"]. c #CBBBA4",
"[. c #C3BDAA",
"{. c #CABBAA",
"}. c #CCB6A4",
"|. c #D1BDA2",
" X c #D6BFA7",
".X c #C3BEB7",
"XX c #BAC3B7",
"oX c #D6C29E",
"OX c #C7C1AA",
"+X c #D5C2A4",
"@X c #D9C2A3",
"#X c #D4C4AB",
"$X c #DAC5AB",
"%X c #DDCAA8",
"&X c #C6C4B8",
"*X c #D4C9B7",
"=X c #DED2BB",
"-X c #E5C9AC",
";X c #E4CDB5",
":X c #E3CFBA",
">X c #EACFB5",
",X c #E3D3BC",
"<X c #EBD4BC",
"1X c #E5D1B6",
"2X c #DCD5C9",
"3X c #D9DAD4",
"4X c #D3D0C7",
"5X c #E2D5C3",
"6X c #EAD8C4",
"7X c #F4DECB",
"8X c #E1DAD2",
"9X c #DCE2DC",
"0X c #F5E4CC",
"qX c #FBE2CC",
"wX c #FDE8CE",
"eX c #ECE6DD",
"rX c #E5E2D7",
"tX c #F6E6D3",
"yX c #F4E9D6",
"uX c #F5EBDC",
"iX c #FCEDDD",
"pX c #F9E8D4",
"aX c #FCF4DE",
"sX c #EDE0CD",
"dX c #D1DDE2",
"fX c #DFE7E4",
"gX c #ECE9E3",
"hX c #E4EBE1",
"jX c #F4EEE2",
"kX c #F9EDE3",
"lX c #EFF5ED",
"zX c #FCF1E2",
"xX c #F2F4EC",
"cX c #FBF5E9",
"vX c #FFFBED",
"bX c #E9F4F4",
"nX c #FCFBF3",
"mX c #FFFFFB",
"MX c #F5F9F6",
/* pixels */
"                                                                                                                                ",
"                                                                                                                                ",
"                                                                                                                                ",
"                                                                                                                                ",
"                                                s.3XMXlXlXlXbXMX&Xs.                                                            ",
"                                              J.Q.yXmXmXmXmXmXmX6XQ.K.                                                          ",
"                                          Z.F.)._.<XuXuXcXcXuXyX>X_.^.G.H.                                                      ",
"                                          '.).!.!.!.W.#XaXaX].Q.!.E.!.).I.                                                      ",
"                                          '.@XpXaXuXzX0X#X$XyXzXkXzX0X^.I.                                                      ",
"                                          [./.Y.U.U.U.L.!.~.P.U.U.U.Y.].I.                                                      ",
"                                          OX^.. . . . Z #X{.. . . . d  X[.                                                      ",
"                                          OX~.d 3 o . $.vXjXb . * o E [.T.                                                      ",
"                                                ` Y.3XU.&.%..X8XH.W                                                             ",
"                                                N {.iX*X_ -.5XiXK.J                                                             ",
"                            rXsXjXhX            ^ i.J.F././.F.J....             I.~.].I.                                        ",
"                        eX=X+X^.5...*XuXgXMXnXcXnXM.. h R K a 3 7 e 1 O .  .,.,.;.0.v.b.~.T.                                    ",
"                      dXmX:Xq.j.F.F.Q.^.~.C.H.%.  H N R 6.3.Z G > . . / Q g.v.k.k.f.0.:._.#X                                    ",
"                        gXY. .<.E.!.m.n.V.D.G.d.M.1.[ ..3.4.| [ o.>.3.N.v.v.v.k.g.f.w.q.g.M.                                    ",
"                            y.w.g.r.x.x.}.7X6X7XtXK.,.>.K T ,.,.N./.^.Q.Q.c.g.q...<.z.z.M & c J V s i                           ",
"                        gX,X_.^._ Q h O - O O . . B ..[ Q Q *.4.n . . . . : O N Q ~ <.5.3.2.#.{ =.a.p.g .                       ",
"                        {.F.g.i.m c f 8 N  .{ i.i.}.6XP.. v i.z.w.q.3.[ [ f q h N N c b B n L / ~ ..>.I G H                     ",
"                      Z.j.t.-...u t y u C  .X.r.i.K.*XH.. y -.<.<.9.4.X. .c y y f f V G @ . g I K B n E / K a                   ",
"                  fXzX^.k.g.>.+.6 % * $ . . . . . . . . J V $ . . . . * + < < < = b 1.$.k . s G b $ . V R W ^                   ",
"                  OX$Xg.5.X.+ e 2 >           `.|.N.u.>.& w r.x.q.>.+.!         p a a a 1 < < $ $ 6 6 1 * c / I O -             ",
"                rX+X).k.4.                    $.2.*...o.,.,.-.,.Q C U g             2 1 4 O g L N . . $ % e c k @ +             ",
"              zX7XJ.J.q.L                         z N P >.#.C l       ,             p 3 @ . g U Z K P s o * X . + -             ",
"              {.R.=.#.g .                           , $ . . $ <                     i 2 @ + o . a y.a.C . 6 6 4 + -             ",
"          gX:X).J.r s                               V 3.].`. .                      > < o . o o * c v Z R b . o + -             ",
"        fXnX<X).J.X -                       T.Y.   .u ! 9.3.[ I   xXrX9X            , < @ O @ % = c v Q } R B n @ -             ",
"          iX>X).J.$ 2                     K./.@X%X<.w Z A m P v `.iXtXqX2X          > < @ O % < 6 J K } ..[ / ^ % O             ",
"          zX>X).J.= 2                 '.F.w.g.E.).i.S -.l.p.[ S z.)._.!.Q.6XrX      2 < @ O % % 8 E E } | } } ' < O             ",
"        fXcX<X).J.. ,             '.N.z.g.w.j.S.S.W./.N.! [ ~.|.).(.!.!.!.@X$X=XyX2X. 7 @ O % 4 = r 9 ^ +.[ / E % ;             ",
"          P.J.x.j.^             T.1Xx.<.0.0.w.g.h.h.l.3.R Q a.a.G.).(.(.(.b.f.$XaX5X. 7 @ . o @ $ * . K ` K h h @ -             ",
"              ) X.l.B.          XX=Xg.=.5.g.g.w.a.[ A ! R R A x w.W.R.E.E.5.~ `.zX2X. 7 * X 1 a r = & K ` B . o + -             ",
"              5 D /.'.          XXOXl.3.g.V.x.6.8. .W K . o R ! | >.<.k.z.7.*.P.gX  . 3 < % h J B 6 & W +.K . 1 + -             ",
"              P.Q.).|.l.              Q =.i.q.{ } 1.3.' . o @.2...Q ..g.i.X.E             + l E J X . J [ C . . O -             ",
"              #X!.z.h.S.Z.            { | >.#.N b L E U       I C d C #..... .            O C } / J J b c h g g @ ;             ",
"              *X^.g.u.|.5X        [ <.3...T I = # . .         . . . r A S ,.u. .I         ; J | | >.>.n X h U G ;               ",
"              2X<X:X1XuXzXjXeX5XS w O.<.O.r j j                     j f u i.V.0.K               ` u.a.Q v P E                   ",
"                3.>...8XvXuX<X;X=.{ =.4.Q @ a                         2 . >.5.z.L.            , s ' [ <.p.' .                   ",
"                        &X*X}.|.^.^.j.e. .. .                         ; . ' Q K.tX=X                l Q /                       ",
"                          i.A.R.%X-XR.D.l.Y &.                          O I v K.wX:XK               . . .                       ",
"                              ,.A.S.@X>X-X,X*X2.                            h j.oXD.R                                           ",
"                                J h y.N.S.!.!.tXjXnXMXxXeXeX                . u.%X).^                                           ",
"                                  U P ! ..e.i.6X0XpXtX0XwXwX}.K.          q.:.<.g.                                              ",
"                                  y.Z o         c.F.!._.-X@X>X;XqXiX0X/./._.).B.%.                                              ",
"                              G 1.>.3.2.            B.x.c.c././.>XqX7XqX0XiXiXzXcXvXxXxXlXlXxXxXxXlXlXbXbXfX4X                  ",
"                              >.6.<.<.2.                      p.a.8.p.B.B.].+X).).).).+X@X@X@X+X#X,X*X                          ",
"                                >.| +.#.                                  9.;.;.:.5.0.r.                                        ",
"                                  I I                                       . B ..[ [                                           ",
"                                  ^ h @                                     . d.#XQ.A.                                          ",
"                                  ^ h +                                     . y.oXE.S.                                          ",
"                                  ( g .                                     . e.oX!.j.                                          ",
"                                  ^ b e                                     . 9./.D.>.                                          ",
"                                  I #.2.{ q                                 . W y.,.M                                           ",
"                                >.>.R Z F Z                                 s g z Y 3XeX                                        ",
"                              ..3.6.N . b ]                               0 e l n @.rXyX[.&X                                    ",
"                            2.a.+.>.b . g                             > 4 7 . ` a.g.Q.Q.tXmX.X                                  ",
"                              #.8 4 y j                               , . K C i.).!.).(._.$XB.                                  ",
"                                                                        J ..[ N. X).).@Xg.y.                                    ",
"                                                                        B 3.,.h.R.D.S.L.                                        ",
"                                                                      > . @.3.>.4.|                                             ",
"                                                                              /                                                 ",
"                                                                                                                                "
};
