/* XPM */
static char *_0e5903d3b8a4a5bc084fd6ae9f85bf6qbfeMxC1LujySNVn[] = {
/* columns rows colors chars-per-pixel */
"64 64 240 2 ",
"   c None",
".  c #000001",
"X  c #0A0402",
"o  c #060805",
"O  c #03050A",
"+  c #09060A",
"@  c #05090A",
"#  c #0B0B0C",
"$  c #090907",
"%  c #160E05",
"&  c #0D110C",
"*  c #1D190E",
"=  c #181409",
"-  c #030B14",
";  c #0A0D13",
":  c #020D1B",
">  c #030712",
",  c #061219",
"<  c #131313",
"1  c #1D1A14",
"2  c #1D1C1C",
"3  c #16171B",
"4  c #261703",
"5  c #211E1B",
"6  c #221E15",
"7  c #32170D",
"8  c #1D211C",
"9  c #2D2204",
"0  c #2D261C",
"q  c #29261B",
"w  c #352D17",
"e  c #3D321A",
"r  c #011323",
"t  c #161B22",
"y  c #252422",
"u  c #2A2624",
"i  c #2C2928",
"p  c #282B24",
"a  c #322C23",
"s  c #3B2F25",
"d  c #322C2A",
"f  c #302623",
"g  c #333124",
"h  c #3D3525",
"j  c #35322D",
"k  c #3B342A",
"l  c #3D392C",
"z  c #31392D",
"x  c #3A3532",
"c  c #3D3A35",
"v  c #373631",
"b  c #2F3224",
"n  c #46321C",
"m  c #44372C",
"M  c #42392C",
"N  c #4A3C2B",
"B  c #453625",
"V  c #423B35",
"C  c #423A36",
"Z  c #3D4237",
"A  c #4B432E",
"S  c #45402A",
"D  c #4C4234",
"F  c #46433C",
"G  c #4C453B",
"H  c #4D493D",
"J  c #474336",
"K  c #534333",
"L  c #53463C",
"P  c #544B3D",
"I  c #5B4E3B",
"U  c #554833",
"Y  c #594932",
"T  c #61513F",
"R  c #4D4541",
"E  c #4C4A43",
"W  c #464543",
"Q  c #534C44",
"!  c #5A4E44",
"~  c #5A4F49",
"^  c #544A45",
"/  c #5C5245",
"(  c #5B544A",
")  c #5C584C",
"_  c #565348",
"`  c #5C5851",
"'  c #635544",
"]  c #63564A",
"[  c #65594C",
"{  c #6C5B4D",
"}  c #685947",
"|  c #655B52",
" . c #6A5D52",
".. c #6E5F58",
"X. c #604F45",
"o. c #6E614E",
"O. c #72614F",
"+. c #6C6254",
"@. c #6A6359",
"#. c #746453",
"$. c #7B6655",
"%. c #7A6B56",
"&. c #736658",
"*. c #75695B",
"=. c #7B6B5B",
"-. c #776758",
";. c #7E705B",
":. c #7D6E62",
">. c #746F64",
",. c #7E7263",
"<. c #7D736A",
"1. c #797272",
"2. c #846D59",
"3. c #846C56",
"4. c #83715D",
"5. c #8B795D",
"6. c #89755A",
"7. c #826B4A",
"8. c #837363",
"9. c #8A7564",
"0. c #8C7A65",
"q. c #827569",
"w. c #867A6E",
"e. c #8D7C6C",
"r. c #8C776A",
"t. c #917E6A",
"y. c #957E67",
"u. c #847971",
"i. c #806F60",
"p. c #8C826D",
"a. c #93836D",
"s. c #99836B",
"d. c #968167",
"f. c #948473",
"g. c #9A8672",
"h. c #9B8A75",
"j. c #9D8C7A",
"k. c #938879",
"l. c #9E9176",
"z. c #A18B69",
"x. c #A48D73",
"c. c #A98E72",
"v. c #AC9374",
"b. c #A5937B",
"n. c #AB957B",
"m. c #AA997C",
"M. c #A79675",
"N. c #B39B7D",
"B. c #B69A77",
"V. c #B2976B",
"C. c #BAA17D",
"Z. c #9D9386",
"A. c #8D9A99",
"S. c #A49882",
"D. c #AD9A83",
"F. c #A79885",
"G. c #B29B85",
"H. c #B29C89",
"J. c #B99E86",
"K. c #BBA384",
"L. c #BCA58B",
"P. c #BBAB8D",
"I. c #B4A388",
"U. c #A9A892",
"Y. c #BCAB94",
"T. c #B7A999",
"R. c #A8A280",
"E. c #B4AEA2",
"W. c #BCB7A8",
"Q. c #ADABA7",
"!. c #C3AD8D",
"~. c #C8AD8E",
"^. c #C9B28C",
"/. c #C3AE92",
"(. c #C8AD97",
"). c #CBB593",
"_. c #CDB993",
"`. c #C5B59B",
"'. c #CBB69A",
"]. c #CDBA9C",
"[. c #C5B297",
"{. c #D3B994",
"}. c #D3BB9C",
"|. c #D6BA97",
" X c #CEBCA2",
".X c #C6B7A6",
"XX c #D2BDA2",
"oX c #D5BEA6",
"OX c #BFC2BA",
"+X c #D8C09D",
"@X c #D5C2A5",
"#X c #DAC3A5",
"$X c #D5C3AA",
"%X c #D9C4AD",
"&X c #C7C2B8",
"*X c #D1C2B3",
"=X c #DAC5B0",
"-X c #D9C8B9",
";X c #CFC9AF",
":X c #E3CBAD",
">X c #E5CFB7",
",X c #E5D2BC",
"<X c #ECD3B9",
"1X c #EED6B8",
"2X c #F1D9BA",
"3X c #C8C6C4",
"4X c #DBD4C8",
"5X c #DAD8D0",
"6X c #EADAC3",
"7X c #ECDDCC",
"8X c #E8D5C5",
"9X c #F2DECB",
"0X c #F1D6C1",
"qX c #E5DCD2",
"wX c #DBE0DC",
"eX c #F3E4CA",
"rX c #F6E2CA",
"tX c #E6E0D6",
"yX c #ECE3D4",
"uX c #EDE4D9",
"iX c #EAE8DD",
"pX c #F4E5D5",
"aX c #F4EBDA",
"sX c #F7E8D6",
"dX c #FDF1DD",
"fX c #DAE6E9",
"gX c #ECE5E1",
"hX c #EAECEB",
"jX c #E4E7E3",
"kX c #F5EBE1",
"lX c #EDF3ED",
"zX c #FDF2E4",
"xX c #FCF4EA",
"cX c #FFF9EE",
"vX c #FFF9E3",
"bX c #ECF5F3",
"nX c #E6F8F7",
"mX c #F4F6F3",
"MX c #FCFBF3",
"NX c #FEFEFC",
/* pixels */
"                                                                                                                                ",
"                                                                                                                                ",
"                                                              U..XMXMXmXbXlXbXnX                                                ",
"                                                            `.@X#XrX9XvXNXNXMXNXhX                                              ",
"                                                        .X:X|.}.{.^.^.,XpXuXxXzXcXNXnX                                          ",
"                                                    W.`.]._.).).).{._._.).@XdXzXzXxXxXMXnX                                      ",
"                                                  fXNXdXpXpXkXzXeX}.oX}.{.}.#X$X6XpXpXcXbX                                      ",
"                                                    3X&XxXMX3XW.E.k.f.L.{.)._.).<XrXpXcXmX                                      ",
"                                                    . F iXaX>.. . . . b.#X}.}.'.:X0X7XxXhX                                      ",
"                                                    . ] $X$X+.. . . . .XsX2X}.XXn.0.f.u.                                        ",
"                                                  A.T.f.[ _ T.-X*X*X*X%X:X#Xb.m.f.q.                                            ",
"                                                    ;XI.o.' .X0X>X%X=XY.G.b.' [                                                 ",
"                                                      m.XX}.N.x.t.n m L ( H . -                                                 ",
"                                                        W M %.a.=.. , . . . W                                                   ",
"                                                        . .  .0.4.6.4.h.b.b.H.Y.  fX                                            ",
"                                                        @.' 8.t.s.B.v.K.Y.Y.}.|.1XzX5X                                          ",
"                                                    . ) @X}.K.n.b.6.r.V . l b.v.B.C.'.yXjX                                      ",
"                                                    p.s.s.s.5.0.-.% 0 . . 6 =.$.0.s.c.:X,X4XhX                                  ",
"                                                  U.[.K.d.s.v.N.x.#.$.$.%.o.M m  .$.8.H.n.#XsX4X                                ",
"                        ( . ; @ @ @ @ @ ; O 5 J e P.XX~.v.n.~.}.~.b.b.x.m.k.. O F / ' q.$.n.~.'.zXiX                            ",
"                    y 5 1 O @ @ @ @ # # o . C e.6.v.N.c.3.4.3.4.{ . . . .         3 0 o.[ 4.0.j.sXkX                            ",
"                  H 1 . O + o o @ O . . c G ^ &.O.t.s.x./.P.!./.L.a.a.4.&.,.          i j D Y ! u.1.                            ",
"                p q # $ + @ @ @ . < j a +.:.&./ [ .. .0.[.!.K.G.D.a.a.4.#.=.*.            b H I } ' g.T.                        ",
"              c . @ o o @ # # < X k  .} t.h.0.' | & . 2 :.9.0 . . . . . . . w b             w.g.oXXX<XvXwX                      ",
"            2 1 O + + # o . . G L +.g.g.#.+.~ & -         +.8.8.g.'. X8.4 M h z             w.9.} N (.xXfX                      ",
"          - O O + o . . 2 V m =.0.8.4.,.G j i . -         f { -.=.e.a.I % 0 0 y               9.G.F.H..XQ.                      ",
"        F 3 O # $ X u 5 G *.#.0.g.4.D ^ < . . # :       < . ! &.! . . X 6 * % <                  XoXm.6.z.sXgX                  ",
"      ; < # # # + . ~ / =.h.g.{ ] H . # # # # @ :       3 . <.b.t.{ { D s h * * 0                   F.@XXX9XgX                  ",
"      > O . . y E G q.a.4.O.#.k u y O + @ @ + @ -       , . V I U h M e w w 4 = w h g                 S.S.f.w.E.jX              ",
"      > @ c x / 8.4.s.x.0.! [ 1 . . # @ @ @ O . :           8 q e G D K K P +.#.I N A h g               ,.' 7 .XcXtX            ",
"      - O _ / -.g.s.d.d.4.! ( 5 . # @ + @ O < 5 -               J [ ] { } #.g.g.4.#.o.B B M l             +.L T.9X,X[.T.        ",
"      > o g h e 9 9 B S k 5 q < < ; @ o # . u                     z h A P P ] Y D.$XY.' ] | `               [ q.t.y.<XtX        ",
"      > o 1 X H e.q.* . . . . . . . < < @ < t                     G e j.Y.D.2.2.%.=.=.%.=.#.[             g l #.9.0.9XpX        ",
"        : - . G w.q. .| &.<.<.( ^ C . o 2 .                   b ] a.0.G.(.J.3.2.T w I h.m.4.!         g.g.' K 0.D.D.,X0XT.M     ",
"          : ; . . . F.P.'.,X>Xn.h.q.. . ~                     ` 0.|.oXx.2.4.} ' 8.e.h. X@Xh.A ,.-X,X].C.D.t.2.J.@X}.}.=XF.      ",
"          r - # < # k w  .D.v.).].-XkXgX-XoX4XhXlXW.M.D.m.R.m.v.V.B.B.'.$X=X8X8XqXuXuXaXpXaXuXpX,X2X+XK.K.5.9.g.f.p.f.S.        ",
"                > @ . . u [ ' w.e.Z.&XW.uXxXMXNXNXaX7XeXeXeX6X6X6X6X6XeXaXaXzXzXxXcXcXcXcXyX-X,X'. Xm.5.0.g.f.                  ",
"                  - & < o . . 3 O         NXMXiXqXaXzXaXpXpXyXtXuXuXuXtXtXtXtXqXqX5X5X5XqX`.z.M.4.                              ",
"                      @ 8 c j u.                N I.}.P.t.g.{ P C . . . . . ! X.7 . . . . m                                     ",
"                                          mX7X[.!.N.n.x.#.*.V u             j s 5 & 1 k v                                       ",
"                                        OX7X%XL.L.d.9.=.M                     # 0 k l J Z                                       ",
"                                    jXaXl.7.4.$.=./ Q E . ,                 3 % l ^ ! G c                                       ",
"                                . . . 4 B m K {  .d >                         < l G ! @.                                        ",
"                                *.f.H.D.} U U N F                             5 E | ]  .                                        ",
"                                ,.b.#X@X4.' ' a                               X / :.=. .                                        ",
"                                  +. X'.=.( ! g                               . | e.e.@.                                        ",
"                                    ) P P                                         x V Q                                         ",
"                                    +.[ M p                                             E                                       ",
"                                  &.a.e.s .                                             G /                                     ",
"                                  #.6.8.s @                                             H [ |                                   ",
"                                P e./.Y.L .                                             R ~ Q                                   ",
"                                G f.@XXX/ .                                                 R ! ]                               ",
"                                P t.'.[.P .                                                   ! |                               ",
"                                | i.y.0.m O                                                   R R H !                           ",
"                                ] e.Y.Y.! O                                                       G { [                         ",
"                                ( j.XX X' O                                                           ) ) ^                     ",
"                                / g.XX X' .                                                             R [ [ /                 ",
"                              . . L j.Z.G O                                                             L ] [ ' G   ; :         ",
"                          T.S.h.h.r.=.q.                                                                ( [ ] ! R E # >         ",
"                x 4 U.].}.}.)._.}.H.L                                                                 | | ] ] ) R   ; :         ",
"            p ( u.0.0.0.9.9.9.8.0.=.] | Q                                                           | | ] L H E                 ",
"      r : ; < f C C c c c c C C C x a d d 2                                                 r - @ y j i i y t                   ",
"                                                                                                                                ",
"                                                                                                                                "
};
