/* XPM */
static char *_d194a327ee0457d88d0a95dc7f36ffd2DnWtfEEOWV7bDEe[] = {
/* columns rows colors chars-per-pixel */
"64 64 236 2 ",
"   c None",
".  c #010102",
"X  c #090602",
"o  c #03050A",
"O  c #05090B",
"+  c #0B0B0C",
"@  c #0B0B04",
"#  c #160804",
"$  c #13110C",
"%  c #1A170D",
"&  c #000311",
"*  c #060C14",
"=  c #0D0E11",
"-  c #070B18",
";  c #130F12",
":  c #0D1112",
">  c #091219",
",  c #141313",
"<  c #1C1A15",
"1  c #151519",
"2  c #1B1B1C",
"3  c #171617",
"4  c #251B08",
"5  c #231E1B",
"6  c #261B16",
"7  c #1D211D",
"8  c #29251D",
"9  c #2D2B1E",
"0  c #292217",
"q  c #35291B",
"w  c #3B301F",
"e  c #27210E",
"r  c #191D21",
"t  c #0C0E20",
"y  c #1A2223",
"u  c #252423",
"i  c #2C2523",
"p  c #2D2923",
"a  c #2C2B2A",
"s  c #332B24",
"d  c #342E2A",
"f  c #312722",
"g  c #353225",
"h  c #3B3524",
"j  c #35322D",
"k  c #3C332B",
"l  c #3B3A2A",
"z  c #2B3634",
"x  c #3A3531",
"c  c #3D3A33",
"v  c #353532",
"b  c #42341F",
"n  c #463208",
"m  c #453B2D",
"M  c #443828",
"N  c #443D34",
"B  c #493F34",
"V  c #433D3A",
"C  c #493E38",
"Z  c #4A412E",
"A  c #4D4334",
"S  c #46433C",
"D  c #4B443C",
"F  c #494739",
"G  c #514335",
"H  c #52453C",
"J  c #534A3C",
"K  c #5A4B3B",
"L  c #554936",
"P  c #5D503C",
"I  c #4D4641",
"U  c #4C4843",
"Y  c #544C43",
"T  c #5A4D44",
"R  c #554B47",
"E  c #5C5245",
"W  c #56514A",
"Q  c #5C534B",
"!  c #555045",
"~  c #5F5551",
"^  c #645445",
"/  c #62564C",
"(  c #64594D",
")  c #6A5B4D",
"_  c #685747",
"`  c #735E49",
"'  c #625651",
"]  c #655A53",
"[  c #6B5D52",
"{  c #665D59",
"}  c #6E6254",
"|  c #6D655A",
" . c #726455",
".. c #796656",
"X. c #766956",
"o. c #7C6B54",
"O. c #72655A",
"+. c #7B6C5C",
"@. c #77685C",
"#. c #7E715E",
"$. c #70604B",
"%. c #7B6D63",
"&. c #766D66",
"*. c #7D7264",
"=. c #767367",
"-. c #6F6760",
";. c #816E5D",
":. c #826E54",
">. c #83725E",
",. c #8B765D",
"<. c #977E5C",
"1. c #816E61",
"2. c #847463",
"3. c #8B7662",
"4. c #847965",
"5. c #8B7A65",
"6. c #837769",
"7. c #8B7B6B",
"8. c #867A6D",
"9. c #937D65",
"0. c #927C6B",
"q. c #8D7D71",
"w. c #98815F",
"e. c #95836C",
"r. c #9B856D",
"t. c #9C896F",
"y. c #988366",
"u. c #948472",
"i. c #998673",
"p. c #9B8A74",
"a. c #9D8B79",
"s. c #968B78",
"d. c #8F816D",
"f. c #A48B6F",
"g. c #A1876E",
"h. c #B6996E",
"j. c #A18B73",
"k. c #A28E7B",
"l. c #A39174",
"z. c #A5937B",
"x. c #AA947A",
"c. c #AA9875",
"v. c #B49C7D",
"b. c #BFA078",
"n. c #9D9486",
"m. c #8A8A88",
"M. c #A39483",
"N. c #AB9781",
"B. c #AC9B83",
"V. c #A89B88",
"C. c #B39E83",
"Z. c #B19C8A",
"A. c #B5A185",
"S. c #BCA484",
"D. c #B6A28B",
"F. c #BBA48A",
"G. c #BCA98D",
"H. c #AAA096",
"J. c #BCAC92",
"K. c #B7A896",
"L. c #B7B19D",
"P. c #AEA08B",
"I. c #BCB3A2",
"U. c #B8B3A8",
"Y. c #C2AA8E",
"T. c #C9AB8B",
"R. c #CBB08B",
"E. c #C3AE93",
"W. c #C6AD98",
"Q. c #C5B295",
"!. c #CBB494",
"~. c #CEB994",
"^. c #CBB59A",
"/. c #CCB99D",
"(. c #C6B29A",
"). c #D3BB95",
"_. c #D3BC9C",
"`. c #D3B99A",
"'. c #C8B9A5",
"]. c #D4BDA5",
"[. c #D3BEB1",
"{. c #D9C09C",
"}. c #CEC5AC",
"|. c #D6C2A5",
" X c #DBC6AC",
".X c #DCC9AB",
"XX c #D9C4A7",
"oX c #CDC4B8",
"OX c #DCC6B5",
"+X c #DDCBB4",
"@X c #D5CABB",
"#X c #DDCDBB",
"$X c #DFD2BA",
"%X c #E5CCAE",
"&X c #E3CCB2",
"*X c #E2CCB8",
"=X c #E4D5BC",
"-X c #EAD4B9",
";X c #C7C9C4",
":X c #DCD6C9",
">X c #DDDAD1",
",X c #D7CDC0",
"<X c #E7D9C5",
"1X c #EDDCC4",
"2X c #E3DBCC",
"3X c #ECDDCB",
"4X c #E9D6C7",
"5X c #F2DDC5",
"6X c #F2D7C1",
"7X c #E2DCD2",
"8X c #EADDD3",
"9X c #F1DFD2",
"0X c #EEE2CE",
"qX c #F7E3CD",
"wX c #E6E0D4",
"eX c #EBE3D4",
"rX c #E5E3DA",
"tX c #ECE5DA",
"yX c #F2E5D5",
"uX c #FAE7D4",
"iX c #F5EADB",
"pX c #FCECDC",
"aX c #F3E6D7",
"sX c #DBEDF1",
"dX c #E8E9E3",
"fX c #F8EEE4",
"gX c #FBF2E4",
"hX c #F3F4EC",
"jX c #FEF9EC",
"kX c #FFF5EA",
"lX c #EBF4F3",
"zX c #E6F5F4",
"xX c #FEFBF2",
"cX c #FDFEFD",
"vX c #F4F7F2",
"bX c #E8F0ED",
/* pixels */
"                                                                                                                                ",
"                                                                                                                                ",
"                                            zXlXlXvXhXhXhXeX}.K.                                                                ",
"                                        zXlXhXxXxXjXgX0X+X_.).)./.'.                                                            ",
"                                    sXlXcXcXxXgXiX<X+X|._.!.!.).{._./.I.                                                        ",
"                                  lXcXcXfXuXpX0X$X|.!.R.~._. X.X.X.X&X=X2X;X                                                    ",
"                                  bXxXjXuX-XXX~.~.).).).!. XeXgXgXkXjXxXvXvX                                                    ",
"                                  lXcXcXpX6X.X).).!.G.a.} v X &.U.>XfX7Xm.                                                      ",
"                                    oX@X'.W.!._.%X&X].Z./ . . W n.'.#X'.&..                                                     ",
"                                      $.:.r.x.!.&X-X*X'.q.R { &.u.M.Z.M.| z                                                     ",
"                                          7.1.0.z.Y.].=X3XuXpX3XK.&.B | L.@X                                                    ",
"                                            t V ( +.6.7.7.p.C.Y.E.E.^.J.V.                                                      ",
"                                              < 9 s i 6 # G o.r.l.z.z.M.                                                        ",
"                                              8.O.( H m k T *.2.( N 8                                                           ",
"                                        tX3X.X)._./.^.E.v.f.r.>._ m 8                                                           ",
"                                    2X$X|.).R.v.e.+.} ..9.f.f.x.F.K.P.n.                                                        ",
"                                >X<X5X%Xv.<.t.5.^ f . 8 K o.3.j.v.F.F.N.+.F                                                     ",
"                            rX7X1X XY.g.3.} ( J G m M s 4 G +.5.,.,.9.f.B.G.                                                    ",
"                        rX2X+X_.A.t.3. .} Y $ j O.u.N.C.x.A.!./.Y.S.v.S._.E.4.9 % . 3 2 : : 1 > & 3 a U                         ",
"                        fXuX^.f.9.o.) J c u       W E E A _ 3.r.9.9.y.l.F.F.p.>.( c < . 2 r 3 = o 1 u x D I                     ",
"                        U.K.8.^ E J S             T T ^ E +.r.x.x.x.l.l.j.j.i.7.O.Y j O = = , , = + . . . < j S                 ",
"                    2.) s . q h 8 <           *.*.7.0.r.x.A.G.Q.^.^.E.B.5.) ) )  . .[ Y s . 2 2 : o O O o 3 p s                 ",
"                  eXuXqXXXF.z.6.              N h 9 $ . . . . s / +.6.@.x - S } 2.u.a.q.O.I x 2 + . + + O X + + ,               ",
"                  dXyX#Xk.` 3.d.              s # q J *.N.N.4. .%.%.*.      z S E } #.7.u.7.[ D d , X . O + o o + ;             ",
"                  oX[.W.a.o.#.#.              9 @ h E 4.N.B.e.;.%.{           , u c J [ 4.7.4.@.) J d ; + o o o O O o o         ",
"            hX7X'.N.r.c./.'.                : , % % X . . 8 J E D j 2         r * + ; d C [ 7.u.7.+.( C p O : + o + , 2         ",
"            fXiX5X%X~.l.2.                d 5 < 6 s m K _ 2.a.a.*.Q j         > * + = , , s H [ 1.7.e.4.[ N p + . . , , , ,     ",
"          ;XH.V.J.G.D.                g h w e 4 0 w m Z m K `  .^ D p         O O O o o . = 1 x Y ) +.3.5.2.) D d , X . o O     ",
"      tXjXiXs.n X.*.              l m Z m A K P L L J H A m w 0 5             & o o o + + + . $ u D ^ +.r.p.5.@.] D d , , O     ",
"  L.}.=X5XOXa.K E             h M Z G E ) >.u.i.3. .[ [ O.} W                 1 , , O X + + . , d D ( +.9.r.p.r.7.+./ V u .     ",
"  9X4X&XZ.;.@.                  H [ 2.z.(.E.u.[ [ Q E L Z l                     a u + . O + + ; , 5 i k A A M b b h l g < .     ",
"yX8X4X[.7.n G A               ( } +.>.5.d.7.+.2.a.N.N.u.^ <                       & o . o X . . . . . . . g ) X.) J 8 . O ,     ",
"OXOX&X].x.o.^ E +.4.s.         .0.i.e.;.K G [ 7.z.D.G.B.u.X.E N                     8 2 , 5 s S Q } -.| E ( *.6.O.! p . >       ",
"P.J._.XX_.Y.j.3.y.c.S./.#X'.*.^ j.F.E.F.p.%. .) _ ..9.C.).!.e.)                     W S o s / i.J.].&X+X^.x. .u , . 1 y         ",
"    i.p.u.e.3.9.f.b.R.XX-X1X3XeXeXtXtXeX8X2X<X*XOX].`.T.b.h.h.c.c.c.c.z.y.I.rXdX>X,XoX@XwXwX+X/.Q.A.x.7.^ s 8 , + & - -         ",
"            4.5.5.e.t.B.Q.|.+X1XaXgXjXxXjXkXgXfXpXpXaX0X<X=X=X-X1X5X5X1X1XyXkXxXxXxXgX8X@XU.V.s.4.} Q V 5 . . o *               ",
"                          t.w.B.'.,X:X7X:X:X7X7X7XwXwXrXrXtXtXtXeXyXaXiXiXiXeXtXhXvXdX        . & o . . $ , :                   ",
"                                i $ X . . 8 H H s X X . . % q L $.5.p.A./.E.5.K                   Q x 7 , &                     ",
"                                    g g 6 6 s j               j D / ;.e.l.C.S.Q.+XwX                                            ",
"                                  g h h h s < +                   j D [ @.d.f.F.]. XoXoX                                        ",
"                                    N D J D s ,                     y v I / O.@.` :.y.J.:X>X                                    ",
"                                    Q Q Y B s ,                         . a W ( E G w 4 # . . .                                 ",
"                                    / / ^ J d ,                             V N m L ( 7.C.F.z.7.                                ",
"                                    [  .+. .B +                               h M ^ ..z._.{.C.>.                                ",
"                                    ] O.6.%.Y                                     Y } p.Q.J.4.                                  ",
"                                    V x 7 o                                         A B h 9                                     ",
"                                  J S                                               k Y O.*.                                    ",
"                              / Q E                                                 f ^ 7.7.O.(                                 ",
"                              Q W R                                                 s ^ 5.0.+.]                                 ",
"                            Y I D D                                               s B 7.(.^.p. .                                ",
"                        ' Q Y U                                                   s D u./.].a. .                                ",
"                          Y Y J                                                   p N 2.D.F.7.}                                 ",
"                    W Y I D                                                         s E >.3. .(                                 ",
"                ' ' ] Q                                                             N 7.(.(.i.}                                 ",
"              Q / /                                                               s S u./.].a. .                                ",
"          E [ [ Q J                                                                 C 4.G.G.5.Q                                 ",
"& > 2 d D T / / T Y                                                                 i Y #.+.A 6 k B                             ",
"  3 u c D T / ' ] ~                                                                       7.D.^.`.^.^./.}.I.&.                  ",
"        D Y Y Q ) ) [                                                                   T +.a.C.C.A.C.C.F.C.i.%.{               ",
"            v V J E Q Y                                                             c S W ] ] [ }  .} [ [ O.%.%.| Q j           ",
"              & o o . . o - -                                                       & . . . . . . . . . . . . . . . O * >       ",
"                                                                                                                                ",
"                                                                                                                                ",
"                                                                                                                                "
};
